<svg width="46" height="46" viewBox="0 0 46 46" fill="none" xmlns="http://www.w3.org/2000/svg">
<path d="M20.3844 5.85459C19.2613 3.83369 16.186 4.65771 16.2215 6.97004L16.2341 7.65125C16.2408 8.0473 16.1414 8.43793 15.9462 8.78259C15.7509 9.12726 15.4671 9.4134 15.1239 9.61134C14.7808 9.80927 14.391 9.91178 13.9949 9.90823C13.5988 9.90468 13.2109 9.79519 12.8714 9.59114L12.2873 9.24258C10.3049 8.05273 8.05284 10.3054 9.24208 12.287L9.5907 12.8734C9.79415 13.2128 9.90319 13.6004 9.90653 13.996C9.90987 14.3917 9.8074 14.781 9.60971 15.1238C9.41202 15.4665 9.12631 15.7502 8.78215 15.9454C8.438 16.1406 8.04792 16.2403 7.6523 16.2341L6.96957 16.2231C4.66102 16.1835 3.83395 19.2607 5.8556 20.3826L6.4495 20.7142C6.79597 20.9062 7.08475 21.1874 7.28587 21.5286C7.48699 21.8699 7.59313 22.2587 7.59327 22.6548C7.59341 23.051 7.48755 23.4399 7.28667 23.7813C7.08579 24.1227 6.79721 24.4041 6.45087 24.5963L5.85463 24.926C3.83373 26.0492 4.65775 29.1245 6.97008 29.0889L7.65129 29.0764C8.04735 29.0697 8.43797 29.1691 8.78264 29.3643C9.1273 29.5595 9.41345 29.8434 9.61138 30.1865C9.80931 30.5296 9.91182 30.9195 9.90827 31.3156C9.90472 31.7116 9.79523 32.0996 9.59118 32.4391L9.24263 33.0232C8.05277 35.0056 10.3054 37.2576 12.2871 36.0684L12.8735 35.7198C13.213 35.5161 13.6008 35.4069 13.9968 35.4035C14.3927 35.4002 14.7823 35.5029 15.1252 35.7008C15.4681 35.8988 15.7519 36.1849 15.9469 36.5295C16.142 36.874 16.2414 37.2645 16.2347 37.6604L16.2232 38.3409C16.1835 40.6494 19.2608 41.4765 20.3827 39.4549L20.7142 38.861C20.9062 38.5145 21.1874 38.2257 21.5287 38.0246C21.8699 37.8235 22.2588 37.7173 22.6549 37.7172C23.051 37.7171 23.4399 37.8229 23.7813 38.0238C24.1227 38.2247 24.4041 38.5133 24.5964 38.8596L24.9261 39.4558C26.0492 41.4767 29.1245 40.6527 29.089 38.3404L29.0764 37.6592C29.0697 37.2631 29.1691 36.8725 29.3643 36.5278C29.5596 36.1832 29.8435 35.897 30.1866 35.6991C30.5297 35.5012 30.9195 35.3986 31.3156 35.4022C31.7117 35.4057 32.0996 35.5152 32.4391 35.7193L33.0232 36.0678C35.0056 37.2577 37.2577 35.005 36.0684 33.0234L35.7198 32.437C35.5161 32.0975 35.4069 31.7096 35.4036 31.3137C35.4003 30.9177 35.5029 30.5281 35.7009 30.1852C35.8989 29.8423 36.185 29.5586 36.5295 29.3635C36.8741 29.1684 37.2645 29.0691 37.6604 29.0757L38.3409 29.0873C40.6495 29.127 41.4766 26.0497 39.4549 24.9278L38.861 24.5962C38.5145 24.4043 38.2258 24.123 38.0246 23.7818C37.8235 23.4405 37.7174 23.0517 37.7172 22.6556C37.7171 22.2595 37.823 21.8705 38.0238 21.5291C38.2247 21.1878 38.5133 20.9063 38.8596 20.7141L39.4559 20.3844C41.4768 19.2612 40.6528 16.186 38.3404 16.2215L37.6592 16.2341C37.2632 16.2408 36.8725 16.1413 36.5279 15.9461C36.1832 15.7509 35.8971 15.467 35.6991 15.1239C35.5012 14.7808 35.3987 14.391 35.4022 13.9949C35.4058 13.5988 35.5153 13.2109 35.7193 12.8713L36.0679 12.2873C37.2577 10.3048 35.0051 8.0528 33.0234 9.24204L32.437 9.59066C32.0977 9.79411 31.7101 9.90315 31.3145 9.90649C30.9188 9.90983 30.5295 9.80736 30.1867 9.60967C29.844 9.41198 29.5603 9.12626 29.3651 8.78211C29.1699 8.43796 29.0702 8.04788 29.0764 7.65226L29.0873 6.96953C29.127 4.66098 26.0497 3.83391 24.9279 5.85556L24.5963 6.44946C24.4043 6.79593 24.1231 7.08471 23.7818 7.28583C23.4406 7.48695 23.0517 7.59309 22.6556 7.59323C22.2595 7.59337 21.8706 7.48751 21.5292 7.28663C21.1878 7.08574 20.9064 6.79716 20.7141 6.45083L20.3844 5.85459ZM25.6455 33.8151C24.1722 34.2323 22.6306 34.3525 21.1104 34.1688C19.5901 33.985 18.1216 33.5009 16.7901 32.7447C15.4585 31.9884 14.2906 30.9751 13.3541 29.7635C12.4176 28.552 11.7313 27.1664 11.335 25.6873C10.9386 24.2082 10.8402 22.665 11.0455 21.1476C11.2507 19.6301 11.7555 18.1685 12.5305 16.8478C13.3055 15.5271 14.3353 14.3737 15.56 13.4544C16.7846 12.5352 18.1798 11.8685 19.6644 11.4931C22.6247 10.6999 25.779 11.1151 28.4332 12.6475C31.0874 14.1799 33.0241 16.704 33.8174 19.6643C34.6106 22.6247 34.1953 25.7789 32.6629 28.4331C31.1305 31.0873 28.6065 33.0241 25.6461 33.8173L25.6455 33.8151Z" fill="#200F11"/>
</svg>
