<svg width="128" height="50" viewBox="0 0 128 50" fill="none" xmlns="http://www.w3.org/2000/svg">
<path d="M53.624 34.192C52.6533 34.192 51.8053 34.0533 51.08 33.776C50.3653 33.488 49.704 33.0347 49.096 32.416L51.096 30.416C51.512 30.8107 51.9493 31.1147 52.408 31.328C52.8667 31.5307 53.3573 31.632 53.88 31.632C54.3173 31.632 54.648 31.568 54.872 31.44C55.096 31.3013 55.208 31.1147 55.208 30.88C55.208 30.6453 55.112 30.4533 54.92 30.304C54.728 30.144 54.472 30.0053 54.152 29.888C53.8427 29.76 53.496 29.632 53.112 29.504C52.7387 29.376 52.3653 29.2213 51.992 29.04C51.6187 28.8587 51.272 28.64 50.952 28.384C50.6427 28.1173 50.392 27.792 50.2 27.408C50.008 27.0133 49.912 26.5333 49.912 25.968C49.912 25.232 50.088 24.5973 50.44 24.064C50.792 23.5307 51.288 23.1253 51.928 22.848C52.568 22.56 53.32 22.416 54.184 22.416C55.0373 22.416 55.8267 22.5547 56.552 22.832C57.288 23.0987 57.896 23.4827 58.376 23.984L56.36 25.984C56.008 25.6427 55.656 25.392 55.304 25.232C54.952 25.0613 54.568 24.976 54.152 24.976C53.8213 24.976 53.5547 25.0293 53.352 25.136C53.16 25.2427 53.064 25.4027 53.064 25.616C53.064 25.84 53.16 26.0267 53.352 26.176C53.544 26.3147 53.7947 26.4427 54.104 26.56C54.424 26.6773 54.7707 26.8 55.144 26.928C55.528 27.056 55.9067 27.2107 56.28 27.392C56.6533 27.5627 56.9947 27.7867 57.304 28.064C57.624 28.3307 57.88 28.6667 58.072 29.072C58.264 29.4773 58.36 29.968 58.36 30.544C58.36 31.7067 57.944 32.608 57.112 33.248C56.2907 33.8773 55.128 34.192 53.624 34.192ZM59.694 34V22.608H62.894V34H59.694ZM62.286 34V31.344H68.398V34H62.286ZM62.286 29.488V26.896H67.806V29.488H62.286ZM62.286 25.264V22.608H68.302V25.264H62.286ZM72.5048 29.456V27.248H74.4408C74.8781 27.248 75.2088 27.1413 75.4328 26.928C75.6674 26.7147 75.7848 26.432 75.7848 26.08C75.7848 25.728 75.6674 25.4453 75.4328 25.232C75.2088 25.0187 74.8781 24.912 74.4408 24.912H72.5048V22.608H74.9528C75.7421 22.608 76.4354 22.752 77.0328 23.04C77.6301 23.328 78.0994 23.728 78.4408 24.24C78.7821 24.752 78.9528 25.3493 78.9528 26.032C78.9528 26.7147 78.7768 27.312 78.4248 27.824C78.0834 28.336 77.6034 28.736 76.9848 29.024C76.3661 29.312 75.6354 29.456 74.7928 29.456H72.5048ZM69.9128 34V22.608H73.1128V34H69.9128ZM76.0568 34L72.9528 29.136L75.8328 28.512L79.6888 34H76.0568ZM86.1385 34.192C85.2638 34.192 84.4478 34.048 83.6905 33.76C82.9438 33.4613 82.2878 33.0453 81.7225 32.512C81.1572 31.9787 80.7145 31.3547 80.3945 30.64C80.0852 29.9147 79.9305 29.1307 79.9305 28.288C79.9305 27.4347 80.0852 26.6507 80.3945 25.936C80.7145 25.2213 81.1518 24.6027 81.7065 24.08C82.2718 23.5573 82.9278 23.152 83.6745 22.864C84.4212 22.5653 85.2318 22.416 86.1065 22.416C86.9918 22.416 87.8025 22.5547 88.5385 22.832C89.2745 23.1093 89.9145 23.4933 90.4585 23.984L88.3305 26.128C88.0745 25.8507 87.7598 25.632 87.3865 25.472C87.0238 25.312 86.5972 25.232 86.1065 25.232C85.6798 25.232 85.2852 25.3013 84.9225 25.44C84.5705 25.5787 84.2665 25.7813 84.0105 26.048C83.7545 26.3147 83.5518 26.64 83.4025 27.024C83.2638 27.3973 83.1945 27.8187 83.1945 28.288C83.1945 28.768 83.2638 29.2 83.4025 29.584C83.5518 29.9573 83.7545 30.2773 84.0105 30.544C84.2665 30.8107 84.5705 31.0187 84.9225 31.168C85.2852 31.3067 85.6798 31.376 86.1065 31.376C86.5865 31.376 87.0132 31.3013 87.3865 31.152C87.7705 31.0027 88.1012 30.784 88.3785 30.496L90.5225 32.64C89.9572 33.1307 89.3225 33.5147 88.6185 33.792C87.9145 34.0587 87.0878 34.192 86.1385 34.192ZM96.8104 34.224C95.9144 34.224 95.0877 34.0747 94.3304 33.776C93.5837 33.4773 92.9277 33.0613 92.3624 32.528C91.8077 31.9947 91.3757 31.3653 91.0664 30.64C90.757 29.9147 90.6024 29.1307 90.6024 28.288C90.6024 27.4347 90.7517 26.6507 91.0504 25.936C91.3597 25.2213 91.7917 24.5973 92.3464 24.064C92.901 23.5307 93.5517 23.12 94.2984 22.832C95.0557 22.5333 95.8824 22.384 96.7784 22.384C97.6744 22.384 98.4957 22.5333 99.2424 22.832C99.9997 23.12 100.656 23.5307 101.21 24.064C101.765 24.5973 102.192 25.2267 102.49 25.952C102.8 26.6667 102.954 27.4507 102.954 28.304C102.954 29.1467 102.8 29.9307 102.49 30.656C102.192 31.3707 101.765 32 101.21 32.544C100.656 33.0773 100.005 33.4933 99.2584 33.792C98.5117 34.08 97.6957 34.224 96.8104 34.224ZM96.7784 31.408C97.3757 31.408 97.893 31.28 98.3304 31.024C98.7677 30.768 99.1037 30.4053 99.3384 29.936C99.573 29.4667 99.6904 28.9173 99.6904 28.288C99.6904 27.8187 99.621 27.3973 99.4824 27.024C99.3544 26.64 99.1624 26.3147 98.9064 26.048C98.6504 25.7707 98.341 25.5627 97.9784 25.424C97.6264 25.2747 97.2264 25.2 96.7784 25.2C96.181 25.2 95.6637 25.328 95.2264 25.584C94.789 25.8293 94.453 26.1867 94.2184 26.656C93.9837 27.1147 93.8664 27.6587 93.8664 28.288C93.8664 28.768 93.9304 29.2 94.0584 29.584C94.197 29.968 94.3944 30.2987 94.6504 30.576C94.9064 30.8427 95.2104 31.0507 95.5624 31.2C95.925 31.3387 96.3304 31.408 96.7784 31.408ZM104.272 34V22.608H106.592L110.832 28.816H109.824L114.048 22.608H116.368V34H113.2V27.856L113.664 27.984L111.344 31.312H109.296L106.992 27.984L107.44 27.856V34H104.272ZM120.849 30V27.696H122.913C123.158 27.696 123.382 27.648 123.585 27.552C123.798 27.4453 123.969 27.2907 124.097 27.088C124.225 26.8747 124.289 26.6133 124.289 26.304C124.289 25.9947 124.225 25.7387 124.097 25.536C123.969 25.3227 123.798 25.168 123.585 25.072C123.382 24.9653 123.158 24.912 122.913 24.912H120.849V22.608H123.537C124.273 22.608 124.934 22.7573 125.521 23.056C126.118 23.344 126.587 23.7653 126.929 24.32C127.281 24.864 127.457 25.5253 127.457 26.304C127.457 27.072 127.281 27.7333 126.929 28.288C126.587 28.8427 126.118 29.2693 125.521 29.568C124.934 29.856 124.273 30 123.537 30H120.849ZM118.257 34V22.608H121.457V34H118.257Z" fill="white"/>
<path d="M22.2311 6.70127C21.108 4.68037 18.0327 5.50439 18.0682 7.81672L18.0808 8.49793C18.0875 8.89398 17.9881 9.28461 17.7928 9.62927C17.5976 9.97394 17.3137 10.2601 16.9706 10.458C16.6275 10.656 16.2377 10.7585 15.8416 10.7549C15.4455 10.7514 15.0576 10.6419 14.7181 10.4378L14.134 10.0893C12.1516 8.89941 9.89952 11.1521 11.0888 13.1337L11.4374 13.7201C11.6408 14.0595 11.7499 14.447 11.7532 14.8427C11.7566 15.2383 11.6541 15.6277 11.4564 15.9704C11.2587 16.3132 10.973 16.5968 10.6288 16.7921C10.2847 16.9873 9.8946 17.087 9.49898 17.0808L8.81625 17.0698C6.5077 17.0301 5.68063 20.1074 7.70228 21.2293L8.29618 21.5609C8.64265 21.7528 8.93143 22.0341 9.13255 22.3753C9.33367 22.7166 9.43981 23.1054 9.43995 23.5015C9.44009 23.8976 9.33423 24.2866 9.13335 24.628C8.93247 24.9693 8.64389 25.2508 8.29755 25.443L7.70131 25.7727C5.68041 26.8959 6.50443 29.9711 8.81676 29.9356L9.49797 29.923C9.89402 29.9163 10.2847 30.0158 10.6293 30.211C10.974 30.4062 11.2601 30.6901 11.4581 31.0332C11.656 31.3763 11.7585 31.7661 11.7549 32.1622C11.7514 32.5583 11.6419 32.9462 11.4379 33.2858L11.0893 33.8698C9.89945 35.8523 12.1521 38.1043 14.1338 36.9151L14.7202 36.5664C15.0597 36.3627 15.4475 36.2536 15.8435 36.2502C16.2394 36.2469 16.629 36.3495 16.9719 36.5475C17.3148 36.7455 17.5985 37.0316 17.7936 37.3762C17.9887 37.7207 18.0881 38.1112 18.0814 38.5071L18.0699 39.1876C18.0302 41.4961 21.1074 42.3232 22.2293 40.3015L22.5609 39.7076C22.7529 39.3612 23.0341 39.0724 23.3754 38.8713C23.7166 38.6701 24.1055 38.564 24.5016 38.5639C24.8977 38.5637 25.2866 38.6696 25.628 38.8705C25.9694 39.0714 26.2508 39.3599 26.443 39.7063L26.7728 40.3025C27.8959 42.3234 30.9712 41.4994 30.9357 39.1871L30.9231 38.5059C30.9164 38.1098 31.0158 37.7192 31.211 37.3745C31.4062 37.0298 31.6901 36.7437 32.0332 36.5458C32.3764 36.3478 32.7662 36.2453 33.1623 36.2489C33.5584 36.2524 33.9463 36.3619 34.2858 36.566L34.8699 36.9145C36.8523 38.1044 39.1043 35.8517 37.9151 33.8701L37.5665 33.2837C37.3628 32.9441 37.2536 32.5563 37.2503 32.1604C37.2469 31.7644 37.3496 31.3748 37.5476 31.0319C37.7455 30.689 38.0316 30.4053 38.3762 30.2102C38.7207 30.0151 39.1112 29.9158 39.5071 29.9224L40.1876 29.934C42.4962 29.9736 43.3232 26.8964 41.3016 25.7745L40.7077 25.4429C40.3612 25.2509 40.0724 24.9697 39.8713 24.6285C39.6702 24.2872 39.5641 23.8984 39.5639 23.5023C39.5638 23.1062 39.6696 22.7172 39.8705 22.3758C40.0714 22.0344 40.36 21.753 40.7063 21.5608L41.3026 21.2311C43.3235 20.1079 42.4994 17.0326 40.1871 17.0682L39.5059 17.0808C39.1098 17.0874 38.7192 16.988 38.3745 16.7928C38.0299 16.5976 37.7437 16.3137 37.5458 15.9706C37.3479 15.6275 37.2454 15.2376 37.2489 14.8416C37.2525 14.4455 37.362 14.0575 37.566 13.718L37.9146 13.1339C39.1044 11.1515 36.8518 8.89948 34.8701 10.0887L34.2837 10.4373C33.9444 10.6408 33.5568 10.7498 33.1611 10.7532C32.7655 10.7565 32.3761 10.654 32.0334 10.4563C31.6907 10.2587 31.407 9.97294 31.2118 9.62879C31.0165 9.28464 30.9169 8.89456 30.923 8.49894L30.934 7.81621C30.9737 5.50766 27.8964 4.68059 26.7745 6.70224L26.443 7.29614C26.251 7.64261 25.9698 7.93139 25.6285 8.13251C25.2873 8.33363 24.8984 8.43977 24.5023 8.43991C24.1062 8.44005 23.7173 8.33419 23.3759 8.13331C23.0345 7.93242 22.7531 7.64384 22.5608 7.29751L22.2311 6.70127ZM27.4922 34.6618C26.0188 35.079 24.4773 35.1992 22.957 35.0154C21.4368 34.8317 19.9683 34.3476 18.6367 33.5914C17.3052 32.8351 16.1373 31.8218 15.2008 30.6102C14.2643 29.3987 13.578 28.0131 13.1816 26.534C12.7853 25.0548 12.6869 23.5117 12.8922 21.9942C13.0974 20.4768 13.6022 19.0152 14.3772 17.6945C15.1522 16.3738 16.182 15.2203 17.4066 14.3011C18.6313 13.3818 20.0265 12.7152 21.5111 12.3398C24.4714 11.5466 27.6257 11.9618 30.2799 13.4942C32.9341 15.0266 34.8708 17.5506 35.664 20.511C36.4573 23.4714 36.042 26.6256 34.5096 29.2798C32.9772 31.934 30.4532 33.8708 27.4928 34.664L27.4922 34.6618Z" fill="#F3F1EF"/>
<path d="M10.5902 35.3465L14.6538 39.4102L38.0771 15.9869L34.0134 11.9233L10.5902 35.3465Z" fill="#282A26"/>
<path d="M7.86794 2.85559L2.00879 8.71474L5.45555 12.1615L6.89196 10.7252L21.7264 25.6369L24.6371 22.7263L9.80268 7.81437L11.3147 6.30235L7.86794 2.85559Z" fill="#282A26"/>
<path opacity="0.3" d="M30.3968 15.5404L34.4604 19.604L38.0779 15.9865L34.0143 11.9229L30.3968 15.5404Z" fill="#C1C4BC"/>
<path opacity="0.3" d="M11.7137 34.2238L15.7773 38.2875L18.7268 35.3381L14.6631 31.2744L11.7137 34.2238Z" fill="#C1C4BC"/>
<path d="M46.7293 8.13562L41.9135 12.9514L37.0482 8.08633L41.864 3.27054L40.703 2.10947C39.2237 0.630178 36.8252 0.630178 35.3459 2.10947L31.0714 6.38396C29.5921 7.86325 29.5921 10.2618 31.0714 11.7411L38.2586 18.9283C39.7379 20.4076 42.1364 20.4076 43.6157 18.9283L47.8903 14.6537C49.3696 13.1744 49.3696 10.7759 47.8903 9.2966L46.7293 8.13562Z" fill="#888A81"/>
<path d="M2.27044 42.8644L7.08624 38.0486L11.9514 42.9138L7.13562 47.7296L8.2967 48.8907C9.77598 50.37 12.1745 50.37 13.6538 48.8907L17.9284 44.6161C19.4077 43.1368 19.4077 40.7383 17.9284 39.259L10.7412 32.0717C9.26186 30.5925 6.86335 30.5925 5.38406 32.0717L1.10947 36.3463C-0.369822 37.8256 -0.369822 40.2241 1.10947 41.7034L2.27044 42.8644Z" fill="#888A81"/>
<path opacity="0.3" d="M20.9768 24.8761L23.8696 21.9833L22.739 20.8526L19.8461 23.7455L20.9768 24.8761Z" fill="#C1C4BC"/>
<path opacity="0.07" d="M4.53395 11.2402L10.3901 5.38403L7.86618 2.86008L2.00999 8.71626L4.53395 11.2402Z" fill="#C1C4BC"/>
<path d="M28.8243 25.2395L24.3172 29.7467C23.4568 30.607 23.4568 32.0149 24.3172 32.8754L39.0129 47.5711C39.8733 48.4315 41.2813 48.4315 42.1416 47.5711L46.6488 43.064C47.5092 42.2036 47.5092 40.7957 46.6488 39.9353L31.953 25.2395C31.0927 24.3791 29.6848 24.3791 28.8243 25.2395Z" fill="#00C09D"/>
<path d="M28.8243 25.2395L24.3172 29.7467C23.4568 30.607 23.4568 32.0149 24.3172 32.8754L25.9364 34.4946L33.5722 26.8587L31.953 25.2395C31.0927 24.3791 29.6848 24.3791 28.8243 25.2395Z" fill="#38FFDB"/>
<path d="M40.9242 43.2568L30.8746 33.2072C30.4852 32.8178 30.4852 32.1862 30.8746 31.7967C31.264 31.4073 31.8955 31.4073 32.2851 31.7967L42.3347 41.8464C42.7241 42.2358 42.7241 42.8674 42.3347 43.2569C41.9453 43.6463 41.3137 43.6463 40.9242 43.2568Z" fill="#008D74"/>
<path d="M28.8243 25.2395L24.3172 29.7467C23.4568 30.607 23.4568 32.0149 24.3172 32.8754L39.0129 47.5711C39.8733 48.4315 41.2813 48.4315 42.1416 47.5711L46.6488 43.064C47.5092 42.2036 47.5092 40.7957 46.6488 39.9353L31.953 25.2395C31.0927 24.3791 29.6848 24.3791 28.8243 25.2395Z" fill="#FF3F62"/>
<path d="M28.8243 25.2395L24.3172 29.7467C23.4568 30.607 23.4568 32.0149 24.3172 32.8754L25.9364 34.4946L33.5722 26.8587L31.953 25.2395C31.0927 24.3791 29.6848 24.3791 28.8243 25.2395Z" fill="#C70024"/>
<path d="M40.9242 43.2568L30.8746 33.2072C30.4852 32.8178 30.4852 32.1862 30.8746 31.7967C31.264 31.4073 31.8955 31.4073 32.2851 31.7967L42.3347 41.8464C42.7241 42.2358 42.7241 42.8674 42.3347 43.2569C41.9453 43.6463 41.3137 43.6463 40.9242 43.2568Z" fill="#FF728B"/>
</svg>
