<svg width="49" height="50" viewBox="0 0 49 50" fill="none" xmlns="http://www.w3.org/2000/svg">
<path d="M22.2311 6.70127C21.108 4.68037 18.0327 5.50439 18.0682 7.81672L18.0808 8.49793C18.0875 8.89398 17.9881 9.28461 17.7928 9.62927C17.5976 9.97394 17.3137 10.2601 16.9706 10.458C16.6275 10.656 16.2377 10.7585 15.8416 10.7549C15.4455 10.7514 15.0576 10.6419 14.7181 10.4378L14.134 10.0893C12.1516 8.89941 9.89952 11.1521 11.0888 13.1337L11.4374 13.7201C11.6408 14.0595 11.7499 14.447 11.7532 14.8427C11.7566 15.2383 11.6541 15.6277 11.4564 15.9704C11.2587 16.3132 10.973 16.5968 10.6288 16.7921C10.2847 16.9873 9.8946 17.087 9.49898 17.0808L8.81625 17.0698C6.5077 17.0301 5.68063 20.1074 7.70228 21.2293L8.29618 21.5609C8.64265 21.7528 8.93143 22.0341 9.13255 22.3753C9.33367 22.7166 9.43981 23.1054 9.43995 23.5015C9.44009 23.8976 9.33423 24.2866 9.13335 24.628C8.93247 24.9693 8.64389 25.2508 8.29755 25.443L7.70131 25.7727C5.68041 26.8959 6.50443 29.9711 8.81676 29.9356L9.49797 29.923C9.89402 29.9163 10.2847 30.0158 10.6293 30.211C10.974 30.4062 11.2601 30.6901 11.4581 31.0332C11.656 31.3763 11.7585 31.7661 11.7549 32.1622C11.7514 32.5583 11.6419 32.9462 11.4379 33.2858L11.0893 33.8698C9.89945 35.8523 12.1521 38.1043 14.1338 36.9151L14.7202 36.5664C15.0597 36.3627 15.4475 36.2536 15.8435 36.2502C16.2394 36.2469 16.629 36.3495 16.9719 36.5475C17.3148 36.7455 17.5985 37.0316 17.7936 37.3762C17.9887 37.7207 18.0881 38.1112 18.0814 38.5071L18.0699 39.1876C18.0302 41.4961 21.1074 42.3232 22.2293 40.3015L22.5609 39.7076C22.7529 39.3612 23.0341 39.0724 23.3754 38.8713C23.7166 38.6701 24.1055 38.564 24.5016 38.5639C24.8977 38.5637 25.2866 38.6696 25.628 38.8705C25.9694 39.0714 26.2508 39.3599 26.443 39.7063L26.7728 40.3025C27.8959 42.3234 30.9712 41.4994 30.9357 39.1871L30.9231 38.5059C30.9164 38.1098 31.0158 37.7192 31.211 37.3745C31.4062 37.0298 31.6901 36.7437 32.0332 36.5458C32.3764 36.3478 32.7662 36.2453 33.1623 36.2489C33.5584 36.2524 33.9463 36.3619 34.2858 36.566L34.8699 36.9145C36.8523 38.1044 39.1043 35.8517 37.9151 33.8701L37.5665 33.2837C37.3628 32.9441 37.2536 32.5563 37.2503 32.1604C37.2469 31.7644 37.3496 31.3748 37.5476 31.0319C37.7455 30.689 38.0316 30.4053 38.3762 30.2102C38.7207 30.0151 39.1112 29.9158 39.5071 29.9224L40.1876 29.934C42.4962 29.9736 43.3232 26.8964 41.3016 25.7745L40.7077 25.4429C40.3612 25.2509 40.0724 24.9697 39.8713 24.6285C39.6702 24.2872 39.5641 23.8984 39.5639 23.5023C39.5638 23.1062 39.6696 22.7172 39.8705 22.3758C40.0714 22.0344 40.36 21.753 40.7063 21.5608L41.3026 21.2311C43.3235 20.1079 42.4994 17.0326 40.1871 17.0682L39.5059 17.0808C39.1098 17.0874 38.7192 16.988 38.3745 16.7928C38.0299 16.5976 37.7437 16.3137 37.5458 15.9706C37.3479 15.6275 37.2454 15.2376 37.2489 14.8416C37.2525 14.4455 37.362 14.0575 37.566 13.718L37.9146 13.1339C39.1044 11.1515 36.8518 8.89948 34.8701 10.0887L34.2837 10.4373C33.9444 10.6408 33.5568 10.7498 33.1611 10.7532C32.7655 10.7565 32.3761 10.654 32.0334 10.4563C31.6907 10.2587 31.407 9.97294 31.2118 9.62879C31.0165 9.28464 30.9169 8.89456 30.923 8.49894L30.934 7.81621C30.9737 5.50766 27.8964 4.68059 26.7745 6.70224L26.443 7.29614C26.251 7.64261 25.9698 7.93139 25.6285 8.13251C25.2873 8.33363 24.8984 8.43977 24.5023 8.43991C24.1062 8.44005 23.7173 8.33419 23.3759 8.13331C23.0345 7.93242 22.7531 7.64384 22.5608 7.29751L22.2311 6.70127ZM27.4922 34.6618C26.0188 35.079 24.4773 35.1992 22.957 35.0154C21.4368 34.8317 19.9683 34.3476 18.6367 33.5914C17.3052 32.8351 16.1373 31.8218 15.2008 30.6102C14.2643 29.3987 13.578 28.0131 13.1816 26.534C12.7853 25.0548 12.6869 23.5117 12.8922 21.9942C13.0974 20.4768 13.6022 19.0152 14.3772 17.6945C15.1522 16.3738 16.182 15.2203 17.4066 14.3011C18.6313 13.3818 20.0265 12.7152 21.5111 12.3398C24.4714 11.5466 27.6257 11.9618 30.2799 13.4942C32.9341 15.0266 34.8708 17.5506 35.664 20.511C36.4573 23.4714 36.042 26.6256 34.5096 29.2798C32.9772 31.934 30.4532 33.8708 27.4928 34.664L27.4922 34.6618Z" fill="#0C0E10"/>
<path d="M10.5902 35.3465L14.6538 39.4102L38.0771 15.9869L34.0134 11.9233L10.5902 35.3465Z" fill="#D7D5D9"/>
<path d="M28.8243 25.2395L24.3172 29.7467C23.4568 30.607 23.4568 32.0149 24.3172 32.8754L39.0129 47.5711C39.8733 48.4315 41.2813 48.4315 42.1416 47.5711L46.6488 43.064C47.5092 42.2036 47.5092 40.7957 46.6488 39.9353L31.953 25.2395C31.0927 24.3791 29.6848 24.3791 28.8243 25.2395Z" fill="#FF3F62"/>
<path d="M7.86794 2.85559L2.00879 8.71474L5.45555 12.1615L6.89196 10.7252L21.7264 25.6369L24.6371 22.7263L9.80268 7.81437L11.3147 6.30235L7.86794 2.85559Z" fill="#D7D5D9"/>
<path opacity="0.3" d="M30.3968 15.5404L34.4604 19.604L38.0779 15.9865L34.0143 11.9229L30.3968 15.5404Z" fill="#3E3B43"/>
<path opacity="0.3" d="M11.7137 34.2238L15.7773 38.2875L18.7268 35.3381L14.6631 31.2744L11.7137 34.2238Z" fill="#3E3B43"/>
<path d="M46.7293 8.13562L41.9135 12.9514L37.0482 8.08633L41.864 3.27054L40.703 2.10947C39.2237 0.630178 36.8252 0.630178 35.3459 2.10947L31.0714 6.38396C29.5921 7.86325 29.5921 10.2618 31.0714 11.7411L38.2586 18.9283C39.7379 20.4076 42.1364 20.4076 43.6157 18.9283L47.8903 14.6537C49.3696 13.1744 49.3696 10.7759 47.8903 9.2966L46.7293 8.13562Z" fill="#77757E"/>
<path d="M2.27044 42.8644L7.08624 38.0486L11.9514 42.9138L7.13562 47.7296L8.2967 48.8907C9.77598 50.37 12.1745 50.37 13.6538 48.8907L17.9284 44.6161C19.4077 43.1368 19.4077 40.7383 17.9284 39.259L10.7412 32.0717C9.26186 30.5925 6.86335 30.5925 5.38406 32.0717L1.10947 36.3463C-0.369822 37.8256 -0.369822 40.2241 1.10947 41.7034L2.27044 42.8644Z" fill="#77757E"/>
<path d="M28.8243 25.2395L24.3172 29.7467C23.4568 30.607 23.4568 32.0149 24.3172 32.8754L25.9364 34.4946L33.5722 26.8587L31.953 25.2395C31.0927 24.3791 29.6848 24.3791 28.8243 25.2395Z" fill="#C70024"/>
<path opacity="0.3" d="M20.9768 24.8761L23.8696 21.9833L22.739 20.8526L19.8461 23.7455L20.9768 24.8761Z" fill="#3E3B43"/>
<path opacity="0.07" d="M4.53395 11.2402L10.3901 5.38403L7.86618 2.86008L2.00999 8.71626L4.53395 11.2402Z" fill="#3E3B43"/>
<path d="M40.9242 43.2568L30.8746 33.2072C30.4852 32.8178 30.4852 32.1862 30.8746 31.7967C31.264 31.4073 31.8955 31.4073 32.2851 31.7967L42.3347 41.8464C42.7241 42.2358 42.7241 42.8674 42.3347 43.2569C41.9453 43.6463 41.3137 43.6463 40.9242 43.2568Z" fill="#FF728B"/>
</svg>
